<?xml version="1.0" encoding="UTF-8"?>
<svg width="386" height="132" viewBox="0 0 410 140" xmlns="http://www.w3.org/2000/svg">
  <defs></defs>
  <g transform="matrix(1,0,0,1,0,0)" fill="#ff8b8b">
    <rect width="410" height="140" rx="10" ry="10"></rect>
  </g>
  <g transform="matrix(3.125,0,0,3.125,20,19.93437499506399)" fill="#ffffff">
    <g>
      <g>
        <path d="M16,1.021c8.271,0,15,6.729,15,15s-6.729,15-15,15s-15-6.729-15-15S7.729,1.021,16,1.021 M16,0.021 c-8.837,0-16,7.163-16,16s7.163,16,16,16c8.837,0,16-7.163,16-16S24.837,0.021,16,0.021L16,0.021z"></path>
      </g>
      <g>
        <path d="M16,9.696c3.488,0,6.325,2.837,6.325,6.325S19.488,22.346,16,22.346s-6.325-2.837-6.325-6.325S12.512,9.696,16,9.696 M16,8.696c-4.046,0-7.325,3.28-7.325,7.325s3.28,7.325,7.325,7.325c4.045,0,7.325-3.28,7.325-7.325S20.045,8.696,16,8.696 L16,8.696z"></path>
      </g>
    </g>
  </g>
  <g transform="matrix(2.8888372465346825,0,0,2.8888372465346825,138.84446413713266,34.075805353305995)" fill="#ffffff">
    <path d="M6.86 6.66 l-0.82 -1.84 l2.4 0 l7.18 15.18 l-2.44 0 l-0.98 -2.18 l-4.54 0 q-1.28 0 -2.3 0.24 q-0.9 0.22 -1.5 0.58 q-0.54 0.32 -0.72 0.66 l-0.38 0.7 l-2.36 0 z M8.46 15.620000000000001 l2.76 0 l-3.26 -6.3 l-3.3 7.14 q0.44 -0.38 1.34 -0.6 q1.02 -0.24 2.46 -0.24 z M31.82 5.08 l-6.26 14.92 l-2.58 0 l-6.16 -14.92 l2.36 0 l5.1 12.48 l5.14 -12.48 l2.4 0 z M36.800000000000004 14.02 l0 3.8 l9.2 0 l0 2.18 l-11.38 0 l0 -14.92 l10.5 0 l0 2.2 l-8.32 0 l0 4.52 q0.62 -0.36 1.38 -0.48 q0.56 -0.1 1.44 -0.1 l3.26 0 l0 2.22 l-3.26 0 q-0.82 0 -1.44 0.1 q-0.76 0.14 -1.38 0.48 z M49.940000000000005 7.18 l-1.74 -2.1 l2.82 0 l9.58 11.4 l0 -11.4 l2.2 0 l0 14.92 l-2.16 0 l-8.56 -10.26 l0 10.26 l-2.14 0 l0 -12.82 z M69.34 20 l-2.14 0 l0 -14.92 l2.14 0 l0 14.92 z M75.92 7.26 l0 4.96 q0.62 -0.36 1.38 -0.48 q0.56 -0.1 1.44 -0.1 l2.84 0 q1.18 0 1.84 -0.54 q0.7 -0.58 0.7 -1.74 q0 -1.1 -0.74 -1.64 q-0.64 -0.46 -1.8 -0.46 l-5.66 0 z M82.30000000000001 17.64 l-1.82 -3.82 l-1.74 0 q-0.82 0 -1.44 0.1 q-0.76 0.14 -1.38 0.48 l0 5.6 l-2.18 0 l0 -14.92 l7.84 0 q1.38 0 2.44 0.52 t1.64 1.48 q0.62 1.02 0.62 2.4 q0 1.68 -0.9 2.76 t-2.54 1.5 l1.16 2.38 q0.5 0.74 0.78 1.04 q0.34 0.38 0.65 0.51 t0.81 0.13 l0.22 0 l0.48 -0.02 l0 2.22 q-1.16 0 -1.72 -0.08 q-0.94 -0.16 -1.6 -0.62 q-0.78 -0.56 -1.32 -1.66 z"></path>
  </g>
</svg>
