<?xml version="1.0" standalone="no"?>
<!DOCTYPE svg PUBLIC "-//W3C//DTD SVG 20010904//EN"
 "http://www.w3.org/TR/2001/REC-SVG-20010904/DTD/svg10.dtd">
<svg version="1.0" xmlns="http://www.w3.org/2000/svg"
 width="64.000000pt" height="64.000000pt" viewBox="0 0 64.000000 64.000000"
 preserveAspectRatio="xMidYMid meet">

<g transform="translate(0.000000,64.000000) scale(0.100000,-0.100000)"
fill="#8F0B15" stroke="none">
<path d="M460 540 c0 -5 -7 -10 -15 -10 -12 0 -15 -18 -15 -100 0 -82 3 -100
15 -100 11 0 15 -12 15 -50 0 -27 5 -50 10 -50 6 0 10 23 10 50 0 38 4 50 15
50 12 0 15 18 15 100 0 82 -3 100 -15 100 -8 0 -15 5 -15 10 0 6 -4 10 -10 10
-5 0 -10 -4 -10 -10z m30 -110 c0 -73 -2 -80 -20 -80 -18 0 -20 7 -20 80 0 73
2 80 20 80 18 0 20 -7 20 -80z"/>
<path d="M230 380 c0 -82 3 -100 15 -100 8 0 15 -7 15 -15 0 -8 5 -15 10 -15
6 0 10 7 10 15 0 8 7 15 15 15 12 0 15 18 15 100 l0 100 -40 0 -40 0 0 -100z
m60 0 c0 -73 -2 -80 -20 -80 -18 0 -20 7 -20 80 0 73 2 80 20 80 18 0 20 -7
20 -80z"/>
<path d="M360 410 c0 -20 -5 -30 -15 -30 -12 0 -15 -18 -15 -100 l0 -100 40 0
40 0 0 100 c0 82 -3 100 -15 100 -10 0 -15 10 -15 30 0 17 -4 30 -10 30 -5 0
-10 -13 -10 -30z m30 -130 c0 -73 -2 -80 -20 -80 -18 0 -20 7 -20 80 0 73 2
80 20 80 18 0 20 -7 20 -80z"/>
<path d="M60 410 c0 -11 -7 -20 -15 -20 -12 0 -15 -18 -15 -100 0 -82 3 -100
15 -100 8 0 15 -9 15 -20 0 -11 5 -20 10 -20 6 0 10 9 10 20 0 11 7 20 15 20
12 0 15 18 15 100 0 82 -3 100 -15 100 -8 0 -15 9 -15 20 0 11 -4 20 -10 20
-5 0 -10 -9 -10 -20z m30 -120 c0 -73 -2 -80 -20 -80 -18 0 -20 7 -20 80 0 73
2 80 20 80 18 0 20 -7 20 -80z"/>
<path d="M560 365 c0 -8 -7 -15 -15 -15 -12 0 -15 -18 -15 -100 0 -82 3 -100
15 -100 8 0 15 -7 15 -15 0 -8 5 -15 10 -15 6 0 10 7 10 15 0 8 7 15 15 15 12
0 15 18 15 100 0 82 -3 100 -15 100 -8 0 -15 7 -15 15 0 8 -4 15 -10 15 -5 0
-10 -7 -10 -15z m30 -115 c0 -73 -2 -80 -20 -80 -18 0 -20 7 -20 80 0 73 2 80
20 80 18 0 20 -7 20 -80z"/>
<path d="M160 310 c0 -20 -5 -30 -15 -30 -12 0 -15 -18 -15 -100 0 -82 3 -100
15 -100 8 0 15 -7 15 -15 0 -8 5 -15 10 -15 6 0 10 7 10 15 0 8 7 15 15 15 12
0 15 18 15 100 0 82 -3 100 -15 100 -10 0 -15 10 -15 30 0 17 -4 30 -10 30 -5
0 -10 -13 -10 -30z m30 -130 c0 -73 -2 -80 -20 -80 -18 0 -20 7 -20 80 0 73 2
80 20 80 18 0 20 -7 20 -80z"/>
</g>
</svg>
